<svg xmlns="http://www.w3.org/2000/svg" version="1.1" viewBox="0 0 420 520" width="420" height="520">
  <!-- svg-source:excalidraw -->
  
  <defs>
    <style class="style-fonts">
      
    </style>
    
  </defs>
  <rect x="0" y="0" width="420" height="520" fill="#ffffff"/><a href="[[S3/OOM/Vorlesung/Einführung 08.10.md#no]]"><g stroke-linecap="round" transform="translate(10 10) rotate(0 200 250)"><path d="M0 0 C133.5 -0.23, 267.44 0.19, 400 0 M0 0 C118.79 -1.08, 236.84 -1.03, 400 0 M400 0 C398.07 113.15, 399.23 225.01, 400 500 M400 0 C401.95 119.33, 401.55 238.16, 400 500 M400 500 C291.31 498.64, 184.51 499.49, 0 500 M400 500 C285.05 501.47, 171.15 501.78, 0 500 M0 500 C-0.64 356.16, -0.3 213.72, 0 0 M0 500 C0.34 388.09, 0.53 276.71, 0 0" stroke="#000000" stroke-width="1" fill="none"/></g><g transform="translate(70.17337036132812 252.33333333333331) rotate(0 139.82662963867188 7.666666666666664)"><text x="139.82662963867188" y="11.266927083333332" font-family="Helvetica, Segoe UI Emoji" font-size="13.333333333333334px" fill="#000000" text-anchor="middle" style="white-space: pre;" direction="ltr" dominant-baseline="alphabetic">[[S3/OOM/Vorlesung/Einführung 08.10.md#no]]</text></g><g stroke-linecap="round" transform="translate(10 10) rotate(0 200 250) scale(1, 1)"><a href="[[S3/OOM/Vorlesung/Einführung 08.10.md#no]]" target="_blank" rel="noopener noreferrer" style="border-radius: 0px;"/></g></a></svg>